<svg width="1648" height="542" viewBox="0 0 1648 542" fill="none" xmlns="http://www.w3.org/2000/svg">
<path d="M159.4 482.6C120.1 443.3 100.5 396 100.5 340.5V100.4H201V139.5H301.5V240H201V340.5C201 368.2 210.8 391.9 230.4 411.5C250 431.1 273.7 440.9 301.4 440.9V541.4C246 541.5 198.6 521.8 159.4 482.6Z" fill="white"/>
<path d="M100.4 0H0V100.4H100.4V0Z" fill="white"/>
<path d="M1526.1 269.7C1534 266.1 1541.5 263.1 1549.5 261.3C1569.4 257 1588.3 259.6 1605.9 269.5C1624.2 279.8 1637 295 1643.4 315.2C1645.7 322.5 1647.1 330 1647.1 337.7C1647.1 362.5 1647 387.3 1647.2 412.2C1647.2 415.8 1646.3 416.6 1642.8 416.5C1631.8 416.3 1620.8 416.3 1609.8 416.5C1606.7 416.6 1606 415.7 1606 412.6C1606.1 388.4 1606.1 364.3 1606.1 340.1C1606.1 316.1 1585 297.2 1560.8 300.6C1541.2 303.3 1526.1 319.1 1526.2 340.4C1526.3 364.2 1526.1 388 1526.3 411.9C1526.3 415.6 1525.4 416.6 1521.7 416.5C1510.7 416.2 1499.7 416.3 1488.7 416.5C1485.9 416.5 1485.1 415.8 1485.1 412.9C1485.2 335.6 1485.2 258.3 1485.1 181C1485.1 178.3 1485.6 177.3 1488.6 177.3C1499.9 177.5 1511.2 177.5 1522.6 177.3C1526 177.2 1526.3 178.5 1526.3 181.3C1526.2 209.4 1526.2 237.6 1526.2 265.7C1526.1 266.9 1526.1 268.1 1526.1 269.7Z" fill="white"/>
<path d="M1021.9 412.1C1011 381.8 999.8 351.6 989.1 321.3C983.6 305.6 976.6 291.1 963.7 279.9C945.2 263.8 924.3 257 899.9 260.4C884.1 262.6 869.9 268.4 858.1 278.7C834.7 299.2 825.7 325.7 830.9 356.1C834.7 378.3 847.1 395.7 865.7 408.3C875.8 415.2 887 419 899.3 420.5C915.3 422.5 930.2 420.4 944.8 413.7C955.1 409 963.3 401.6 971.2 393C973.8 399.9 976.2 406.3 978.4 412.8C979.1 414.9 979.6 416.5 982.5 416.4C996 416.2 1009.5 416.3 1023.1 416.3C1022.8 414.9 1022.3 413.5 1021.9 412.1ZM910.2 380.4C891.5 380.7 869.6 364 870.6 339.8C871.3 320.3 887.2 299.2 911.4 300.4C933.5 301.5 950.3 317.3 950.4 339.9C950.5 362.5 933.4 380.3 910.2 380.4Z" fill="white"/>
<path d="M1307.3 347.2C1306.7 340.1 1307.5 333.1 1306.4 326C1303.5 305.9 1293.4 290 1278.4 277.3C1259.1 261 1236 256.4 1211.7 260.7C1186.6 265.2 1167.8 279.8 1155.6 302.1C1146.1 319.5 1144.4 338.2 1148.2 357.8C1152.2 378.2 1162.9 394.201 1179.1 406.201C1198.9 420.801 1221.6 424.7 1245.6 419.4C1258.8 416.5 1270.3 410.2 1280.2 401.1C1281.7 399.7 1282.1 398.9 1280.5 396.9C1273.1 387.3 1266.1 377.401 1258.9 367.701C1257.7 366.001 1257.3 366.6 1255.9 368.1C1248.9 375.6 1240.1 380 1229.9 380.4C1211.6 381.2 1198.7 372.7 1190.7 356.4C1188.9 352.7 1188.8 351.4 1193.6 351.4C1211.6 351.6 1229.5 351.5 1247.5 351.5C1265.8 351.5 1284.1 351.5 1302.4 351.6C1305.6 351.5 1307.6 351 1307.3 347.2ZM1192.3 320.9C1204.3 294.6 1247.7 292.3 1261.9 320.8C1257.9 321.6 1198.3 321.7 1192.3 320.9Z" fill="white"/>
<path d="M626.9 262.9C626.9 260.6 626.7 259.3 623.8 259.4C613.1 259.6 602.5 259.6 591.8 259.4C589.3 259.4 588.7 260.2 588.8 262.5C589 267 588.8 271.4 588.8 276.3C586.8 275.3 585.1 274.4 583.4 273.6C565.6 265.8 547.4 263.9 528.6 270.1C513.7 275 501.6 283.6 491.8 296C475.9 316.1 472.6 338.6 478.8 362.9C482.4 377.1 490.6 388.3 501.1 398.2C513.5 409.8 528.4 416.1 545 417.3C564.5 418.7 582.3 413.8 598 401C615.5 386.7 625.7 368.5 626.5 346.3C627.7 318.5 626.9 290.7 626.9 262.9ZM550.9 379.4C533.2 381.2 512.5 362.8 513.7 340C514.7 321.7 531.4 303.3 552.7 304.2C571.1 305 589.5 321.9 589 343C588.7 361.9 571.8 380.8 550.9 379.4Z" fill="white"/>
<path d="M809.7 373.801C809.7 386.801 809.6 399.801 809.8 412.801C809.8 415.501 809.3 416.501 806.3 416.501C795 416.301 783.7 416.301 772.3 416.501C768.9 416.601 768.6 415.301 768.6 412.501C768.7 388.201 768.6 363.901 768.7 339.501C768.7 321.601 755.1 305.401 737.9 301.301C713.1 295.401 688.2 314.701 688.7 341.001C689.1 364.501 688.7 388.001 688.9 411.501C688.9 415.101 688.4 416.601 684.2 416.501C673.4 416.101 662.6 416.301 651.7 416.401C648.9 416.401 647.7 416.101 647.7 412.701C647.9 386.401 647.2 360.001 648 333.801C648.6 316.501 655.1 300.901 666.8 287.701C676.9 276.301 688.7 267.701 703.3 263.301C730.5 255.101 756 258.901 778.7 276.201C794.6 288.301 805 304.701 808.5 324.601C811 339.201 809.4 354.101 809.7 368.801C809.8 370.501 809.7 372.201 809.7 373.801Z" fill="white"/>
<path d="M1045.5 261.4C1045.5 234.9 1045.6 208.4 1045.4 181.9C1045.4 178.2 1046.2 177.2 1050 177.3C1060.8 177.6 1071.6 177.5 1082.5 177.3C1085.8 177.2 1086.6 178.1 1086.6 181.4C1086.5 205.9 1086.6 230.4 1086.4 254.9C1086.4 258.6 1087.2 259.6 1091 259.5C1101.6 259.2 1112.3 259.5 1123 259.3C1125.8 259.3 1126.6 260 1126.6 262.9C1126.4 272.2 1126.4 281.6 1126.6 290.9C1126.7 293.7 1125.9 294.5 1123 294.5C1112 294.3 1101 294.5 1090 294.4C1087.2 294.4 1086.4 295.1 1086.4 298C1086.5 311.7 1086.2 325.3 1086.5 339C1087 355.7 1100.9 370.8 1116.3 374.4C1117.4 374.7 1118.4 375.3 1119.5 375.5C1121.7 375.9 1125 374.4 1126 376.3C1127.1 378.4 1126.4 381.5 1126.4 384.1C1126.4 393.6 1126.2 403.1 1126.5 412.6C1126.6 416 1125.5 416.8 1122.3 416.6C1103.7 415.3 1087.1 409.4 1073 396.8C1061.9 386.9 1053.6 375.4 1049.2 361C1046.9 353.5 1045.4 345.9 1045.4 338C1045.5 312.4 1045.5 286.9 1045.5 261.4Z" fill="white"/>
<path d="M1408.6 259.5C1428.7 259.1 1445.4 265.7 1460.3 277.1C1463.3 279.4 1463.3 281.3 1460.9 284.3C1454.4 292.6 1448.2 301.1 1442.1 309.7C1440.1 312.5 1439 312.8 1436.2 310.3C1418.5 294.7 1391.8 298.2 1378 316.8C1362.9 337.1 1370.3 365.3 1392.2 376.4C1406.2 383.5 1424.4 382.3 1436.1 369.8C1439.6 366.1 1440.7 367.2 1443.3 370.8C1449.7 379.6 1456.7 388 1463.7 396.4C1465.4 398.4 1465.1 399.3 1463.4 400.7C1451.6 411.6 1437.8 418.3 1421.8 420.5C1408.1 422.5 1394.8 421.6 1381.9 416.6C1354.6 406.1 1337.4 386.8 1331.2 357.8C1327.8 341.9 1328.5 326.3 1334.4 311.3C1342.7 289.9 1357.8 274.6 1378.9 265.4C1383.9 263.2 1389.2 261.5 1394.5 260.7C1399.4 259.9 1404.5 258.3 1408.6 259.5Z" fill="white"/>
<path d="M495.5 417.401C500.7 417.401 505.8 417.501 511 417.301C513.4 417.201 514.1 417.901 514.1 420.301C513.6 436.501 530.7 452.201 545.2 454.601C568.1 458.301 588.4 439.901 589 419.901C589.1 417.401 590.1 417.301 592 417.301C602.5 417.401 613 417.501 623.5 417.201C626.9 417.101 627.4 418.401 627.1 421.201C625.7 437.501 620.7 452.401 609.9 464.901C598.9 477.601 585.8 487.501 569.1 490.701C545.1 495.301 522.8 491.701 503.4 475.101C490.2 463.801 481.8 450.101 477.9 433.401C477.2 430.401 476.7 427.401 476.4 424.301C475.6 417.301 475.6 417.301 482.9 417.301C486.9 417.401 491.2 417.401 495.5 417.401Z" fill="white"/>
<path d="M379.1 374.5C379.1 363 378.9 351.5 379.2 340C379.6 323.6 384.6 308.8 395.1 295.8C405.6 282.8 418.6 273.8 434.7 269.2C439.9 267.7 445.2 267.4 450.4 266.4C452.9 265.9 454.3 266.4 454.2 269.6C454 280.1 454 290.6 454.2 301.1C454.2 303.7 453.6 304.3 450.9 304.5C433.2 305.7 417.2 321.3 417.1 340C417.1 364.3 417 388.6 417.2 412.9C417.2 416.6 416.3 417.6 412.6 417.5C402.6 417.2 392.6 417.3 382.7 417.5C379.9 417.5 379.1 416.8 379.1 414C379.2 400.8 379.1 387.6 379.1 374.5Z" fill="white"/>
<path d="M394.1 228.5C394.1 222.2 394.2 215.8 394 209.5C393.9 207.1 394.6 206.4 397 206.4C410 206.5 423 206.5 436 206.4C438.4 206.4 439.1 207 439.1 209.4C439 222.4 439 235.4 439.1 248.4C439.1 250.8 438.5 251.5 436.1 251.5C423.1 251.4 410.1 251.4 397.1 251.5C394.7 251.5 394 250.9 394 248.5C394.2 241.8 394.1 235.1 394.1 228.5Z" fill="white"/>
</svg>
